<svg version="1.1" xmlns="http://www.w3.org/2000/svg" xmlns:xlink="http://www.w3.org/1999/xlink" width="743" height="672"><defs></defs><g><g transform="translate(-66,-58) scale(1,1)"><rect fill="#C0C0C0" stroke="none" x="219" y="75" width="476" height="652" opacity="0.2"></rect></g><g transform="translate(-66,-58) scale(1,1)"><rect fill="#ffffff" stroke="none" x="212" y="68" width="476" height="652"></rect></g><g transform="translate(-66,-58) scale(1,1)"><path fill="none" stroke="#000000" d="M 212 68 L 688 68 L 688 720 L 212 720 L 212 68 Z Z" stroke-miterlimit="10"></path></g><g transform="translate(-66,-58) scale(1,1)"><g><path fill="none" stroke="none"></path><text fill="#000000" stroke="none" font-family="Arial" font-size="13px" font-style="normal" font-weight="bold" text-decoration="none" x="359" y="87.5">Automated Attendance System</text></g></g><g transform="translate(-66,-58) scale(1,1)"><path fill="#ffffff" stroke="none" d="M 107.82072727272728 605.6800000000001 C 107.82072727272728 600.8861679360001 111.70656959767274 597 116.5 597 C 121.29343040232726 597 125.17927272727272 600.8861679360001 125.17927272727272 605.6800000000001 C 125.17927272727272 610.473832064 121.29343040232726 614.36 116.5 614.36 C 111.70656959767274 614.36 107.82072727272728 610.473832064 107.82072727272728 605.6800000000001 Z"></path></g><g transform="translate(-66,-58) scale(1,1)"><path fill="none" stroke="#000000" d="M 107.82072727272728 605.6800000000001 C 107.82072727272728 600.8861679360001 111.70656959767274 597 116.5 597 C 121.29343040232726 597 125.17927272727272 600.8861679360001 125.17927272727272 605.6800000000001 C 125.17927272727272 610.473832064 121.29343040232726 614.36 116.5 614.36 C 111.70656959767274 614.36 107.82072727272728 610.473832064 107.82072727272728 605.6800000000001 Z" stroke-miterlimit="10"></path></g><g transform="translate(-66,-58) scale(1,1)"><path fill="none" stroke="#000000" d="M 116.5 614.36 L 116.5 631.64" stroke-miterlimit="10"></path></g><g transform="translate(-66,-58) scale(1,1)"><path fill="none" stroke="#000000" d="M 107.31018181818183 620.84 L 125.68981818181817 620.84" stroke-miterlimit="10"></path></g><g transform="translate(-66,-58) scale(1,1)"><path fill="none" stroke="#000000" d="M 116.5 631.64 L 103.73636363636365 649" stroke-miterlimit="10"></path></g><g transform="translate(-66,-58) scale(1,1)"><path fill="none" stroke="#000000" d="M 116.5 631.64 L 129.26363636363635 649" stroke-miterlimit="10"></path></g><g transform="translate(-66,-58) scale(1,1)"><g><path fill="none" stroke="none"></path><text fill="#000000" stroke="none" font-family="Arial" font-size="13px" font-style="normal" font-weight="bold" text-decoration="none" x="102" y="669.5">DOO</text></g></g><g transform="translate(-66,-58) scale(1,1)"><path fill="#ffffff" stroke="none" d="M 104.32072727272727 405.68 C 104.32072727272727 400.886167936 108.20656959767273 397 113 397 C 117.79343040232727 397 121.67927272727273 400.886167936 121.67927272727273 405.68 C 121.67927272727273 410.473832064 117.79343040232727 414.36 113 414.36 C 108.20656959767273 414.36 104.32072727272727 410.473832064 104.32072727272727 405.68 Z"></path></g><g transform="translate(-66,-58) scale(1,1)"><path fill="none" stroke="#000000" d="M 104.32072727272727 405.68 C 104.32072727272727 400.886167936 108.20656959767273 397 113 397 C 117.79343040232727 397 121.67927272727273 400.886167936 121.67927272727273 405.68 C 121.67927272727273 410.473832064 117.79343040232727 414.36 113 414.36 C 108.20656959767273 414.36 104.32072727272727 410.473832064 104.32072727272727 405.68 Z" stroke-miterlimit="10"></path></g><g transform="translate(-66,-58) scale(1,1)"><path fill="none" stroke="#000000" d="M 113 414.36 L 113 431.64" stroke-miterlimit="10"></path></g><g transform="translate(-66,-58) scale(1,1)"><path fill="none" stroke="#000000" d="M 103.81018181818182 420.84 L 122.18981818181818 420.84" stroke-miterlimit="10"></path></g><g transform="translate(-66,-58) scale(1,1)"><path fill="none" stroke="#000000" d="M 113 431.64 L 100.23636363636363 449" stroke-miterlimit="10"></path></g><g transform="translate(-66,-58) scale(1,1)"><path fill="none" stroke="#000000" d="M 113 431.64 L 125.76363636363637 449" stroke-miterlimit="10"></path></g><g transform="translate(-66,-58) scale(1,1)"><g><path fill="none" stroke="none"></path><text fill="#000000" stroke="none" font-family="Arial" font-size="13px" font-style="normal" font-weight="bold" text-decoration="none" x="90.5" y="469.5">Student</text></g></g><g transform="translate(-66,-58) scale(1,1)"><path fill="#ffffff" stroke="none" d="M 97.82072727272727 189.68 C 97.82072727272727 184.886167936 101.70656959767273 181 106.5 181 C 111.29343040232727 181 115.17927272727273 184.886167936 115.17927272727273 189.68 C 115.17927272727273 194.47383206400002 111.29343040232727 198.36 106.5 198.36 C 101.70656959767273 198.36 97.82072727272727 194.47383206400002 97.82072727272727 189.68 Z"></path></g><g transform="translate(-66,-58) scale(1,1)"><path fill="none" stroke="#000000" d="M 97.82072727272727 189.68 C 97.82072727272727 184.886167936 101.70656959767273 181 106.5 181 C 111.29343040232727 181 115.17927272727273 184.886167936 115.17927272727273 189.68 C 115.17927272727273 194.47383206400002 111.29343040232727 198.36 106.5 198.36 C 101.70656959767273 198.36 97.82072727272727 194.47383206400002 97.82072727272727 189.68 Z" stroke-miterlimit="10"></path></g><g transform="translate(-66,-58) scale(1,1)"><path fill="none" stroke="#000000" d="M 106.5 198.36 L 106.5 215.64" stroke-miterlimit="10"></path></g><g transform="translate(-66,-58) scale(1,1)"><path fill="none" stroke="#000000" d="M 97.31018181818182 204.84 L 115.68981818181818 204.84" stroke-miterlimit="10"></path></g><g transform="translate(-66,-58) scale(1,1)"><path fill="none" stroke="#000000" d="M 106.5 215.64 L 93.73636363636363 233" stroke-miterlimit="10"></path></g><g transform="translate(-66,-58) scale(1,1)"><path fill="none" stroke="#000000" d="M 106.5 215.64 L 119.26363636363637 233" stroke-miterlimit="10"></path></g><g transform="translate(-66,-58) scale(1,1)"><g><path fill="none" stroke="none"></path><text fill="#000000" stroke="none" font-family="Arial" font-size="13px" font-style="normal" font-weight="bold" text-decoration="none" x="83.5" y="253.5">Teacher</text></g></g><g transform="translate(-66,-58) scale(1,1)"><path fill="#C0C0C0" stroke="none" d="M 359 124 C 359 114.6111584 384.9674816 107 417 107 C 449.0325184 107 475 114.6111584 475 124 C 475 133.3888416 449.0325184 141 417 141 C 384.9674816 141 359 133.3888416 359 124 Z" opacity="0.2"></path></g><g transform="translate(-66,-58) scale(1,1)"><path fill="#ffffff" stroke="none" d="M 352 117 C 352 107.6111584 377.9674816 100 410 100 C 442.0325184 100 468 107.6111584 468 117 C 468 126.3888416 442.0325184 134 410 134 C 377.9674816 134 352 126.3888416 352 117 Z"></path></g><g transform="translate(-66,-58) scale(1,1)"><path fill="none" stroke="#000000" d="M 352 117 C 352 107.6111584 377.9674816 100 410 100 C 442.0325184 100 468 107.6111584 468 117 C 468 126.3888416 442.0325184 134 410 134 C 377.9674816 134 352 126.3888416 352 117 Z" stroke-miterlimit="10"></path></g><g transform="translate(-66,-58) scale(1,1)"><g><path fill="none" stroke="none"></path><text fill="#000000" stroke="none" font-family="Arial" font-size="13px" font-style="normal" font-weight="bold" text-decoration="none" x="386" y="124">Register</text></g></g><g transform="translate(-66,-58) scale(1,1)"><path fill="#C0C0C0" stroke="none" d="M 303 180 C 303 170.6111584 325.1619024 163 352.5 163 C 379.8380976 163 402 170.6111584 402 180 C 402 189.3888416 379.8380976 197 352.5 197 C 325.1619024 197 303 189.3888416 303 180 Z" opacity="0.2"></path></g><g transform="translate(-66,-58) scale(1,1)"><path fill="#ffffff" stroke="none" d="M 296 173 C 296 163.6111584 318.1619024 156 345.5 156 C 372.8380976 156 395 163.6111584 395 173 C 395 182.3888416 372.8380976 190 345.5 190 C 318.1619024 190 296 182.3888416 296 173 Z"></path></g><g transform="translate(-66,-58) scale(1,1)"><path fill="none" stroke="#000000" d="M 296 173 C 296 163.6111584 318.1619024 156 345.5 156 C 372.8380976 156 395 163.6111584 395 173 C 395 182.3888416 372.8380976 190 345.5 190 C 318.1619024 190 296 182.3888416 296 173 Z" stroke-miterlimit="10"></path></g><g transform="translate(-66,-58) scale(1,1)"><g><path fill="none" stroke="none"></path><text fill="#000000" stroke="none" font-family="Arial" font-size="13px" font-style="normal" font-weight="bold" text-decoration="none" x="330" y="180">Login</text></g></g><g transform="translate(-66,-58) scale(1,1)"><path fill="#C0C0C0" stroke="none" d="M 323 640 C 323 630.6111584 345.1619024 623 372.5 623 C 399.8380976 623 422 630.6111584 422 640 C 422 649.3888416 399.8380976 657 372.5 657 C 345.1619024 657 323 649.3888416 323 640 Z" opacity="0.2"></path></g><g transform="translate(-66,-58) scale(1,1)"><path fill="#ffffff" stroke="none" d="M 316 633 C 316 623.6111584 338.1619024 616 365.5 616 C 392.8380976 616 415 623.6111584 415 633 C 415 642.3888416 392.8380976 650 365.5 650 C 338.1619024 650 316 642.3888416 316 633 Z"></path></g><g transform="translate(-66,-58) scale(1,1)"><path fill="none" stroke="#000000" d="M 316 633 C 316 623.6111584 338.1619024 616 365.5 616 C 392.8380976 616 415 623.6111584 415 633 C 415 642.3888416 392.8380976 650 365.5 650 C 338.1619024 650 316 642.3888416 316 633 Z" stroke-miterlimit="10"></path></g><g transform="translate(-66,-58) scale(1,1)"><g><path fill="none" stroke="none"></path><text fill="#000000" stroke="none" font-family="Arial" font-size="13px" font-style="normal" font-weight="bold" text-decoration="none" x="345" y="640">Log Off</text></g></g><g transform="translate(-66,-58) scale(1,1)"><path fill="#C0C0C0" stroke="none" d="M 339 224 C 339 214.6111584 361.38576 207 389 207 C 416.61424 207 439 214.6111584 439 224 C 439 233.3888416 416.61424 241 389 241 C 361.38576 241 339 233.3888416 339 224 Z" opacity="0.2"></path></g><g transform="translate(-66,-58) scale(1,1)"><path fill="#ffffff" stroke="none" d="M 332 217 C 332 207.6111584 354.38576 200 382 200 C 409.61424 200 432 207.6111584 432 217 C 432 226.3888416 409.61424 234 382 234 C 354.38576 234 332 226.3888416 332 217 Z"></path></g><g transform="translate(-66,-58) scale(1,1)"><path fill="none" stroke="#000000" d="M 332 217 C 332 207.6111584 354.38576 200 382 200 C 409.61424 200 432 207.6111584 432 217 C 432 226.3888416 409.61424 234 382 234 C 354.38576 234 332 226.3888416 332 217 Z" stroke-miterlimit="10"></path></g><g transform="translate(-66,-58) scale(1,1)"><g><path fill="none" stroke="none"></path><text fill="#000000" stroke="none" font-family="Arial" font-size="13px" font-style="normal" font-weight="bold" text-decoration="none" x="352" y="224">Add Class</text></g></g><g transform="translate(-66,-58) scale(1,1)"><path fill="#C0C0C0" stroke="none" d="M 343 344 C 343 334.6111584 379.7126464 327 425 327 C 470.2873536 327 507 334.6111584 507 344 C 507 353.3888416 470.2873536 361 425 361 C 379.7126464 361 343 353.3888416 343 344 Z" opacity="0.2"></path></g><g transform="translate(-66,-58) scale(1,1)"><path fill="#ffffff" stroke="none" d="M 336 337 C 336 327.6111584 372.7126464 320 418 320 C 463.2873536 320 500 327.6111584 500 337 C 500 346.3888416 463.2873536 354 418 354 C 372.7126464 354 336 346.3888416 336 337 Z"></path></g><g transform="translate(-66,-58) scale(1,1)"><path fill="none" stroke="#000000" d="M 336 337 C 336 327.6111584 372.7126464 320 418 320 C 463.2873536 320 500 327.6111584 500 337 C 500 346.3888416 463.2873536 354 418 354 C 372.7126464 354 336 346.3888416 336 337 Z" stroke-miterlimit="10"></path></g><g transform="translate(-66,-58) scale(1,1)"><g><path fill="none" stroke="none"></path><text fill="#000000" stroke="none" font-family="Arial" font-size="13px" font-style="normal" font-weight="bold" text-decoration="none" x="368.5" y="344">Mark Attendance</text></g></g><g transform="translate(-66,-58) scale(1,1)"><path fill="#C0C0C0" stroke="none" d="M 483 240 C 483 230.6111584 524.413656 223 575.5 223 C 626.586344 223 668 230.6111584 668 240 C 668 249.3888416 626.586344 257 575.5 257 C 524.413656 257 483 249.3888416 483 240 Z" opacity="0.2"></path></g><g transform="translate(-66,-58) scale(1,1)"><path fill="#ffffff" stroke="none" d="M 476 233 C 476 223.6111584 517.413656 216 568.5 216 C 619.586344 216 661 223.6111584 661 233 C 661 242.3888416 619.586344 250 568.5 250 C 517.413656 250 476 242.3888416 476 233 Z"></path></g><g transform="translate(-66,-58) scale(1,1)"><path fill="none" stroke="#000000" d="M 476 233 C 476 223.6111584 517.413656 216 568.5 216 C 619.586344 216 661 223.6111584 661 233 C 661 242.3888416 619.586344 250 568.5 250 C 517.413656 250 476 242.3888416 476 233 Z" stroke-miterlimit="10"></path></g><g transform="translate(-66,-58) scale(1,1)"><g><path fill="none" stroke="none"></path><text fill="#000000" stroke="none" font-family="Arial" font-size="13px" font-style="normal" font-weight="bold" text-decoration="none" x="511" y="240">Set Class Schedule</text></g></g><g transform="translate(-66,-58) scale(1,1)"><path fill="#C0C0C0" stroke="none" d="M 335 288 C 335 278.6111584 364.101488 271 400 271 C 435.898512 271 465 278.6111584 465 288 C 465 297.3888416 435.898512 305 400 305 C 364.101488 305 335 297.3888416 335 288 Z" opacity="0.2"></path></g><g transform="translate(-66,-58) scale(1,1)"><path fill="#ffffff" stroke="none" d="M 328 281 C 328 271.6111584 357.101488 264 393 264 C 428.898512 264 458 271.6111584 458 281 C 458 290.3888416 428.898512 298 393 298 C 357.101488 298 328 290.3888416 328 281 Z"></path></g><g transform="translate(-66,-58) scale(1,1)"><path fill="none" stroke="#000000" d="M 328 281 C 328 271.6111584 357.101488 264 393 264 C 428.898512 264 458 271.6111584 458 281 C 458 290.3888416 428.898512 298 393 298 C 357.101488 298 328 290.3888416 328 281 Z" stroke-miterlimit="10"></path></g><g transform="translate(-66,-58) scale(1,1)"><g><path fill="none" stroke="none"></path><text fill="#000000" stroke="none" font-family="Arial" font-size="13px" font-style="normal" font-weight="bold" text-decoration="none" x="353.5" y="288">View Classes</text></g></g><g transform="translate(-66,-58) scale(1,1)"><path fill="none" stroke="#000000" d="M 138 213 L 295 183" stroke-miterlimit="10"></path></g><g transform="translate(-66,-58) scale(1,1)"><path fill="none" stroke="#000000" d="M 138 208 L 356 135" stroke-miterlimit="10"></path></g><g transform="translate(-66,-58) scale(1,1)"><path fill="none" stroke="#000000" d="M 138 219 L 331 217" stroke-miterlimit="10"></path></g><g transform="translate(-66,-58) scale(1,1)"><path fill="none" stroke="#000000" d="M 138 226 L 327 267" stroke-miterlimit="10"></path></g><g transform="translate(-66,-58) scale(1,1)"><path fill="none" stroke="#000000" d="M 390 263 L 385 235" stroke-miterlimit="10" stroke-dasharray="3"></path></g><g transform="translate(-66,-58) scale(1,1)"><path fill="none" stroke="#000000" d="M 390.9304684605383 244.26442355673362 L 385 235 L 382.6425377433088 245.7444111848103" stroke-miterlimit="10"></path></g><g transform="translate(-66,-58) scale(1,1)"><path fill="none" stroke="#000000" d="M 366 155 L 389 135" stroke-miterlimit="10" stroke-dasharray="3"></path></g><g transform="translate(-66,-58) scale(1,1)"><path fill="none" stroke="#000000" d="M 384.09338538408025 144.84505627260924 L 389 135 L 378.56899348088893 138.49200558393926" stroke-miterlimit="10"></path></g><g transform="translate(-66,-58) scale(1,1)"><path fill="none" stroke="#000000" d="M 433 221 L 475 225" stroke-miterlimit="10" stroke-dasharray="3"></path></g><g transform="translate(-66,-58) scale(1,1)"><path fill="none" stroke="#000000" d="M 464.48400263094146 228.2270418859931 L 475 225 L 465.2822037486401 219.84593015015756" stroke-miterlimit="10"></path></g><g transform="translate(-66,-58) scale(1,1)"><g><path fill="none" stroke="none"></path><text fill="#000000" stroke="none" font-family="Arial" font-size="13px" font-style="normal" font-weight="normal" text-decoration="none" x="429" y="213">«include»</text></g></g><g transform="translate(-66,-58) scale(1,1)"><path fill="none" stroke="#000000" d="M 138 231 L 370 319" stroke-miterlimit="10"></path></g><g transform="translate(-66,-58) scale(1,1)"><path fill="#ffffff" stroke="none" d="M 748.8207272727273 325.68 C 748.8207272727273 320.886167936 752.7065695976727 317 757.5 317 C 762.2934304023273 317 766.1792727272727 320.886167936 766.1792727272727 325.68 C 766.1792727272727 330.473832064 762.2934304023273 334.36 757.5 334.36 C 752.7065695976727 334.36 748.8207272727273 330.473832064 748.8207272727273 325.68 Z"></path></g><g transform="translate(-66,-58) scale(1,1)"><path fill="none" stroke="#000000" d="M 748.8207272727273 325.68 C 748.8207272727273 320.886167936 752.7065695976727 317 757.5 317 C 762.2934304023273 317 766.1792727272727 320.886167936 766.1792727272727 325.68 C 766.1792727272727 330.473832064 762.2934304023273 334.36 757.5 334.36 C 752.7065695976727 334.36 748.8207272727273 330.473832064 748.8207272727273 325.68 Z" stroke-miterlimit="10"></path></g><g transform="translate(-66,-58) scale(1,1)"><path fill="none" stroke="#000000" d="M 757.5 334.36 L 757.5 351.64" stroke-miterlimit="10"></path></g><g transform="translate(-66,-58) scale(1,1)"><path fill="none" stroke="#000000" d="M 748.3101818181818 340.84 L 766.6898181818182 340.84" stroke-miterlimit="10"></path></g><g transform="translate(-66,-58) scale(1,1)"><path fill="none" stroke="#000000" d="M 757.5 351.64 L 744.7363636363636 369" stroke-miterlimit="10"></path></g><g transform="translate(-66,-58) scale(1,1)"><path fill="none" stroke="#000000" d="M 757.5 351.64 L 770.2636363636364 369" stroke-miterlimit="10"></path></g><g transform="translate(-66,-58) scale(1,1)"><g><path fill="none" stroke="none"></path><text fill="#000000" stroke="none" font-family="Arial" font-size="13px" font-style="normal" font-weight="normal" text-decoration="none" x="720.5" y="387.5">«secondary»</text></g></g><g transform="translate(-66,-58) scale(1,1)"><g><path fill="none" stroke="none"></path><text fill="#000000" stroke="none" font-family="Arial" font-size="13px" font-style="normal" font-weight="bold" text-decoration="none" x="725" y="402.5">Mobile App</text></g></g><g transform="translate(-66,-58) scale(1,1)"><path fill="none" stroke="#000000" d="M 143 425 L 362 355" stroke-miterlimit="10"></path></g><g transform="translate(-66,-58) scale(1,1)"><path fill="#C0C0C0" stroke="none" d="M 519 456 C 519 446.6111584 547.4299152 439 582.5 439 C 617.5700848 439 646 446.6111584 646 456 C 646 465.3888416 617.5700848 473 582.5 473 C 547.4299152 473 519 465.3888416 519 456 Z" opacity="0.2"></path></g><g transform="translate(-66,-58) scale(1,1)"><path fill="#ffffff" stroke="none" d="M 512 449 C 512 439.6111584 540.4299152 432 575.5 432 C 610.5700848 432 639 439.6111584 639 449 C 639 458.3888416 610.5700848 466 575.5 466 C 540.4299152 466 512 458.3888416 512 449 Z"></path></g><g transform="translate(-66,-58) scale(1,1)"><path fill="none" stroke="#000000" d="M 512 449 C 512 439.6111584 540.4299152 432 575.5 432 C 610.5700848 432 639 439.6111584 639 449 C 639 458.3888416 610.5700848 466 575.5 466 C 540.4299152 466 512 458.3888416 512 449 Z" stroke-miterlimit="10"></path></g><g transform="translate(-66,-58) scale(1,1)"><g><path fill="none" stroke="none"></path><text fill="#000000" stroke="none" font-family="Arial" font-size="13px" font-style="normal" font-weight="bold" text-decoration="none" x="538.5" y="456">Get Location</text></g></g><g transform="translate(-66,-58) scale(1,1)"><path fill="none" stroke="#000000" d="M 715 382 L 613 431" stroke-miterlimit="10"></path></g><g transform="translate(-66,-58) scale(1,1)"><path fill="#C0C0C0" stroke="none" d="M 307 484 C 307 474.6111584 330.9527632 467 360.5 467 C 390.0472368 467 414 474.6111584 414 484 C 414 493.3888416 390.0472368 501 360.5 501 C 330.9527632 501 307 493.3888416 307 484 Z" opacity="0.2"></path></g><g transform="translate(-66,-58) scale(1,1)"><path fill="#ffffff" stroke="none" d="M 300 477 C 300 467.6111584 323.9527632 460 353.5 460 C 383.0472368 460 407 467.6111584 407 477 C 407 486.3888416 383.0472368 494 353.5 494 C 323.9527632 494 300 486.3888416 300 477 Z"></path></g><g transform="translate(-66,-58) scale(1,1)"><path fill="none" stroke="#000000" d="M 300 477 C 300 467.6111584 323.9527632 460 353.5 460 C 383.0472368 460 407 467.6111584 407 477 C 407 486.3888416 383.0472368 494 353.5 494 C 323.9527632 494 300 486.3888416 300 477 Z" stroke-miterlimit="10"></path></g><g transform="translate(-66,-58) scale(1,1)"><g><path fill="none" stroke="none"></path><text fill="#000000" stroke="none" font-family="Arial" font-size="13px" font-style="normal" font-weight="bold" text-decoration="none" x="321.5" y="484">Alert Class</text></g></g><g transform="translate(-66,-58) scale(1,1)"><path fill="none" stroke="#000000" d="M 142 618 L 326 495" stroke-miterlimit="10"></path></g><g transform="translate(-66,-58) scale(1,1)"><path fill="none" stroke="#000000" d="M 138 252 L 336 459" stroke-miterlimit="10"></path></g><g transform="translate(-66,-58) scale(1,1)"><path fill="#C0C0C0" stroke="none" d="M 475 312 C 475 302.6111584 522.2339536 295 580.5 295 C 638.7660464 295 686 302.6111584 686 312 C 686 321.3888416 638.7660464 329 580.5 329 C 522.2339536 329 475 321.3888416 475 312 Z" opacity="0.2"></path></g><g transform="translate(-66,-58) scale(1,1)"><path fill="#ffffff" stroke="none" d="M 468 305 C 468 295.6111584 515.2339536 288 573.5 288 C 631.7660464 288 679 295.6111584 679 305 C 679 314.3888416 631.7660464 322 573.5 322 C 515.2339536 322 468 314.3888416 468 305 Z"></path></g><g transform="translate(-66,-58) scale(1,1)"><path fill="none" stroke="#000000" d="M 468 305 C 468 295.6111584 515.2339536 288 573.5 288 C 631.7660464 288 679 295.6111584 679 305 C 679 314.3888416 631.7660464 322 573.5 322 C 515.2339536 322 468 314.3888416 468 305 Z" stroke-miterlimit="10"></path></g><g transform="translate(-66,-58) scale(1,1)"><g><path fill="none" stroke="none"></path><text fill="#000000" stroke="none" font-family="Arial" font-size="13px" font-style="normal" font-weight="bold" text-decoration="none" x="509" y="312">Auto Take Attendance</text></g></g><g transform="translate(-66,-58) scale(1,1)"><path fill="#C0C0C0" stroke="none" d="M 291 427 C 291 415.954304 343.8303936 407 409 407 C 474.1696064 407 527 415.954304 527 427 C 527 438.045696 474.1696064 447 409 447 C 343.8303936 447 291 438.045696 291 427 Z" opacity="0.2"></path></g><g transform="translate(-66,-58) scale(1,1)"><path fill="#ffffff" stroke="none" d="M 284 420 C 284 408.954304 336.8303936 400 402 400 C 467.1696064 400 520 408.954304 520 420 C 520 431.045696 467.1696064 440 402 440 C 336.8303936 440 284 431.045696 284 420 Z"></path></g><g transform="translate(-66,-58) scale(1,1)"><path fill="none" stroke="#000000" d="M 284 420 C 284 408.954304 336.8303936 400 402 400 C 467.1696064 400 520 408.954304 520 420 C 520 431.045696 467.1696064 440 402 440 C 336.8303936 440 284 431.045696 284 420 Z" stroke-miterlimit="10"></path></g><g transform="translate(-66,-58) scale(1,1)"><g><path fill="none" stroke="none"></path><text fill="#000000" stroke="none" font-family="Arial" font-size="13px" font-style="normal" font-weight="bold" text-decoration="none" x="330" y="427">Take Manual Attendance</text></g></g><g transform="translate(-66,-58) scale(1,1)"><path fill="none" stroke="#000000" d="M 573 323 L 575 431" stroke-miterlimit="10" stroke-dasharray="3"></path></g><g transform="translate(-66,-58) scale(1,1)"><path fill="none" stroke="#000000" d="M 570.603038433977 420.9170079347985 L 575 431 L 579.0206307240026 420.76112659609436" stroke-miterlimit="10"></path></g><g transform="translate(-66,-58) scale(1,1)"><path fill="none" stroke="#000000" d="M 501 333 L 528 332 L 543 323" stroke-miterlimit="10"></path></g><g transform="translate(-66,-58) scale(1,1)"><path fill="none" stroke="#000000" d="M 536.4513572211375 331.8382847744827 L 543 323 L 532.1197991854035 324.61902138159263" stroke-miterlimit="10"></path></g><g transform="translate(-66,-58) scale(1,1)"><g><path fill="none" stroke="none"></path><text fill="#000000" stroke="none" font-family="Arial" font-size="13px" font-style="normal" font-weight="normal" text-decoration="none" x="526" y="348">+uses</text></g></g><g transform="translate(-66,-58) scale(1,1)"><path fill="none" stroke="#000000" d="M 415 355 L 406 399" stroke-miterlimit="10"></path></g><g transform="translate(-66,-58) scale(1,1)"><path fill="none" stroke="#000000" d="M 403.9124343873935 388.19990417574627 L 406 399 L 412.16068919394843 389.88704720435976" stroke-miterlimit="10"></path></g><g transform="translate(-66,-58) scale(1,1)"><g><path fill="none" stroke="none"></path><text fill="#000000" stroke="none" font-family="Arial" font-size="13px" font-style="normal" font-weight="normal" text-decoration="none" x="415" y="381">+uses</text></g></g><g transform="translate(-66,-58) scale(1,1)"><path fill="none" stroke="#000000" d="M 444 319 L 542 251" stroke-miterlimit="10" stroke-dasharray="3"></path></g><g transform="translate(-66,-58) scale(1,1)"><path fill="none" stroke="#000000" d="M 536.050235534233 260.2520431690463 L 542 251 L 531.2506987351301 253.33506366445678" stroke-miterlimit="10"></path></g><g transform="translate(-66,-58) scale(1,1)"><path fill="#C0C0C0" stroke="none" d="M 415 540 C 415 530.6111584 449.2502128 523 491.5 523 C 533.7497872 523 568 530.6111584 568 540 C 568 549.3888416 533.7497872 557 491.5 557 C 449.2502128 557 415 549.3888416 415 540 Z" opacity="0.2"></path></g><g transform="translate(-66,-58) scale(1,1)"><path fill="#ffffff" stroke="none" d="M 408 533 C 408 523.6111584 442.2502128 516 484.5 516 C 526.7497872 516 561 523.6111584 561 533 C 561 542.3888416 526.7497872 550 484.5 550 C 442.2502128 550 408 542.3888416 408 533 Z"></path></g><g transform="translate(-66,-58) scale(1,1)"><path fill="none" stroke="#000000" d="M 408 533 C 408 523.6111584 442.2502128 516 484.5 516 C 526.7497872 516 561 523.6111584 561 533 C 561 542.3888416 526.7497872 550 484.5 550 C 442.2502128 550 408 542.3888416 408 533 Z" stroke-miterlimit="10"></path></g><g transform="translate(-66,-58) scale(1,1)"><g><path fill="none" stroke="none"></path><text fill="#000000" stroke="none" font-family="Arial" font-size="13px" font-style="normal" font-weight="bold" text-decoration="none" x="439" y="540">Generate Alerts</text></g></g><g transform="translate(-66,-58) scale(1,1)"><path fill="none" stroke="#000000" d="M 504 515 L 556 467" stroke-miterlimit="10"></path></g><g transform="translate(-66,-58) scale(1,1)"><path fill="none" stroke="#000000" d="M 551.3876636439958 476.9863082938132 L 556 467 L 545.6771993719814 470.79997199913095" stroke-miterlimit="10"></path></g><g transform="translate(-66,-58) scale(1,1)"><g><path fill="none" stroke="none"></path><text fill="#000000" stroke="none" font-family="Arial" font-size="13px" font-style="normal" font-weight="normal" text-decoration="none" x="501" y="486">+uses</text></g></g><g transform="translate(-66,-58) scale(1,1)"><path fill="none" stroke="#000000" d="M 142 635 L 315 633" stroke-miterlimit="10"></path></g><g transform="translate(-66,-58) scale(1,1)"><path fill="none" stroke="#000000" d="M 143 459 L 342 615" stroke-miterlimit="10"></path></g><g transform="translate(-66,-58) scale(1,1)"><path fill="none" stroke="#000000" d="M 132 260 L 354 615" stroke-miterlimit="10"></path></g><g transform="translate(-66,-58) scale(1,1)"><path fill="#C0C0C0" stroke="none" d="M 439 584 C 439 574.6111584 462.0573328 567 490.5 567 C 518.9426672 567 542 574.6111584 542 584 C 542 593.3888416 518.9426672 601 490.5 601 C 462.0573328 601 439 593.3888416 439 584 Z" opacity="0.2"></path></g><g transform="translate(-66,-58) scale(1,1)"><path fill="#ffffff" stroke="none" d="M 432 577 C 432 567.6111584 455.0573328 560 483.5 560 C 511.9426672 560 535 567.6111584 535 577 C 535 586.3888416 511.9426672 594 483.5 594 C 455.0573328 594 432 586.3888416 432 577 Z"></path></g><g transform="translate(-66,-58) scale(1,1)"><path fill="none" stroke="#000000" d="M 432 577 C 432 567.6111584 455.0573328 560 483.5 560 C 511.9426672 560 535 567.6111584 535 577 C 535 586.3888416 511.9426672 594 483.5 594 C 455.0573328 594 432 586.3888416 432 577 Z" stroke-miterlimit="10"></path></g><g transform="translate(-66,-58) scale(1,1)"><g><path fill="none" stroke="none"></path><text fill="#000000" stroke="none" font-family="Arial" font-size="13px" font-style="normal" font-weight="bold" text-decoration="none" x="453.5" y="584">Join Class</text></g></g><g transform="translate(-66,-58) scale(1,1)"><path fill="#C0C0C0" stroke="none" d="M 435 624 C 435 614.6111584 461.862912 607 495 607 C 528.137088 607 555 614.6111584 555 624 C 555 633.3888416 528.137088 641 495 641 C 461.862912 641 435 633.3888416 435 624 Z" opacity="0.2"></path></g><g transform="translate(-66,-58) scale(1,1)"><path fill="#ffffff" stroke="none" d="M 428 617 C 428 607.6111584 454.862912 600 488 600 C 521.137088 600 548 607.6111584 548 617 C 548 626.3888416 521.137088 634 488 634 C 454.862912 634 428 626.3888416 428 617 Z"></path></g><g transform="translate(-66,-58) scale(1,1)"><path fill="none" stroke="#000000" d="M 428 617 C 428 607.6111584 454.862912 600 488 600 C 521.137088 600 548 607.6111584 548 617 C 548 626.3888416 521.137088 634 488 634 C 454.862912 634 428 626.3888416 428 617 Z" stroke-miterlimit="10"></path></g><g transform="translate(-66,-58) scale(1,1)"><g><path fill="none" stroke="none"></path><text fill="#000000" stroke="none" font-family="Arial" font-size="13px" font-style="normal" font-weight="bold" text-decoration="none" x="453" y="624">Leave Class</text></g></g><g transform="translate(-66,-58) scale(1,1)"><path fill="none" stroke="#000000" d="M 143 447 L 436 559" stroke-miterlimit="10"></path></g><g transform="translate(-66,-58) scale(1,1)"><path fill="none" stroke="#000000" d="M 143 450 L 451 599" stroke-miterlimit="10"></path></g><g transform="translate(-66,-58) scale(1,1)"><path fill="none" stroke="#000000" d="M 329 191 L 143 401" stroke-miterlimit="10"></path></g><g transform="translate(-66,-58) scale(1,1)"><path fill="none" stroke="#000000" d="M 136 595 L 336 191" stroke-miterlimit="10"></path></g></g></svg>